{"title":"Formula 1 2009 Round 17 Abu Dhabi Race","uid":9685342,"size":1951046155,"categoryP":"video","categoryS":"tv_shows","magnet":"?xt=urn:btih:e40d50d9d3ec4a9acb2a99e9598d5a40f9c05666&amp;dn=Formula+1+2009+Round+17+Abu+Dhabi+Race&amp;tr=udp%3A%2F%2Ftracker.openbittorrent.com%3A80&amp;tr=udp%3A%2F%2Fopen.demonii.com%3A1337&amp;tr=udp%3A%2F%2Ftracker.coppersurfer.tk%3A6969&amp;tr=udp%3A%2F%2Fexodus.desync.com%3A6969","seeders":0,"leechers":2,"uploader":"totocon","files":1,"time":1393753864,"description":"So, this is it for now with the 2009 season.\nWorking to get the damaged ones fixed. But to be honest, it's not looking good.\nAnyway, enjoy.\nPreparing 2010 for upload comming next.\n\nFormat                                   : Matroska\nFormat version                           : Version 4 / Version 2\nFile size                                : 1.82 GiB\nDuration                                 : 3h 1mn\nOverall bit rate                         : 1 430 Kbps\nEncoded date                             : UTC 2014-03-01 11:18:25\nWriting application                      : mkvmerge v6.3.0 ('You can't stop me!') built on Jun 27 2013 22:06:07\nWriting library                          : libebml v1.3.0 + libmatroska v1.4.0\n\nVideo\nID                                       : 1\nFormat                                   : MPEG-4 Visual\nFormat profile                           : Simple@L3\nFormat settings, BVOP                    : No\nFormat settings, QPel                    : No\nFormat settings, GMC                     : No warppoints\nFormat settings, Matrix                  : Default (H.263)\nCodec ID                                 : V_MS/VFW/FOURCC / XVID\nCodec ID/Hint                            : XviD\nDuration                                 : 3h 1mn\nBit rate                                 : 1 274 Kbps\nWidth                                    : 718 pixels\nHeight                                   : 574 pixels\nDisplay aspect ratio                     : 16:9\nFrame rate mode                          : Constant\nFrame rate                               : 25.000 fps\nColor space                              : YUV\nChroma subsampling                       : 4:2:0\nBit depth                                : 8 bits\nScan type                                : Progressive\nCompression mode                         : Lossy\nBits/(Pixel*Frame)                       : 0.124\nStream size                              : 1.62 GiB (89%)\nWriting library                          : XviD 1.1.2 (UTC 2006-11-01)\nDefault                                  : Yes\nForced                                   : No\n\nAudio\nID                                       : 2\nFormat                                   : MPEG Audio\nFormat version                           : Version 1\nFormat profile                           : Layer 3\nMode                                     : Joint stereo\nCodec ID                                 : A_MPEG/L3\nCodec ID/Hint                            : MP3\nDuration                                 : 3h 1mn\nBit rate mode                            : Constant\nBit rate                                 : 128 Kbps\nChannel(s)                               : 2 channels\nSampling rate                            : 44.1 KHz\nCompression mode                         : Lossy\nStream size                              : 167 MiB (9%)\nDefault                                  : Yes\nForced                                   : No\n\n","torrent":{"xt":"urn:btih:e40d50d9d3ec4a9acb2a99e9598d5a40f9c05666","amp;dn":"Formula+1+2009+Round+17+Abu+Dhabi+Race","amp;tr":["udp%3A%2F%2Ftracker.openbittorrent.com%3A80","udp%3A%2F%2Fopen.demonii.com%3A1337","udp%3A%2F%2Ftracker.coppersurfer.tk%3A6969","udp%3A%2F%2Fexodus.desync.com%3A6969"],"infoHash":"e40d50d9d3ec4a9acb2a99e9598d5a40f9c05666","infoHashBuffer":{"type":"Buffer","data":[228,13,80,217,211,236,74,154,203,42,153,233,89,141,90,64,249,192,86,102]},"announce":[],"urlList":[]}}